<svg width="25" height="24" viewBox="0 0 25 24" fill="none" xmlns="http://www.w3.org/2000/svg">
<g clip-path="url(#clip0)">
<path d="M24.0969 5.67188C23.7086 5.67188 23.3938 5.98669 23.3938 6.375V7.07812H21.9407V3.51562C21.9407 1.57711 20.3636 0 18.425 0H7.17505C5.23653 0 3.65942 1.57711 3.65942 3.51562V7.07812H2.2063V6.375C2.2063 5.98669 1.89149 5.67188 1.50317 5.67188C1.11486 5.67188 0.800049 5.98669 0.800049 6.375C0.800049 6.62217 0.800049 11.7533 0.800049 12C0.800049 12.3883 1.11486 12.7031 1.50317 12.7031C1.89149 12.7031 2.2063 12.3883 2.2063 12V11.2969H3.65942C3.65942 11.6233 3.65942 14.4933 3.65942 14.8125C3.65942 19.8785 7.75991 24 12.8 24C17.8402 24 21.9407 19.8785 21.9407 14.8125V11.2969H23.3938V12C23.3938 12.3883 23.7086 12.7031 24.0969 12.7031C24.4852 12.7031 24.8 12.3883 24.8 12C24.8 11.7528 24.8 6.6217 24.8 6.375C24.8 5.98669 24.4852 5.67188 24.0969 5.67188ZM3.65942 9.89062H2.2063C2.2063 9.38175 2.2063 8.99325 2.2063 8.48438H3.65942V9.89062ZM20.5344 14.8125C20.5344 19.1031 17.0648 22.5938 12.8 22.5938C8.53531 22.5938 5.06567 19.1031 5.06567 14.8125C5.06567 14.7507 5.06567 7.26066 5.06567 6.95714C5.28575 7.03519 5.52233 7.07808 5.7688 7.07808C6.30866 7.07808 6.80155 6.87398 7.17505 6.53925C7.54855 6.87403 8.04144 7.07808 8.5813 7.07808C9.12116 7.07808 9.61405 6.87398 9.98755 6.53925C10.361 6.87403 10.8539 7.07808 11.3938 7.07808C11.9337 7.07808 12.4265 6.87398 12.8 6.53925C13.1735 6.87403 13.6664 7.07808 14.2063 7.07808C14.7462 7.07808 15.239 6.87398 15.6125 6.53925C15.986 6.87403 16.4789 7.07808 17.0188 7.07808C17.5587 7.07808 18.0515 6.87398 18.425 6.53925C18.7985 6.87403 19.2914 7.07808 19.8313 7.07808C20.0778 7.07808 20.3143 7.03519 20.5344 6.95714V14.8125ZM20.5344 4.96875C20.5344 5.35645 20.219 5.67188 19.8313 5.67188C19.4436 5.67188 19.1282 5.35645 19.1282 4.96875C19.1282 4.58044 18.8134 4.26562 18.425 4.26562C18.0367 4.26562 17.7219 4.58044 17.7219 4.96875C17.7219 5.35645 17.4065 5.67188 17.0188 5.67188C16.6311 5.67188 16.3157 5.35645 16.3157 4.96875C16.3157 4.58044 16.0009 4.26562 15.6125 4.26562C15.2242 4.26562 14.9094 4.58044 14.9094 4.96875C14.9094 5.35645 14.594 5.67188 14.2063 5.67188C13.8186 5.67188 13.5032 5.35645 13.5032 4.96875C13.5032 4.58044 13.1884 4.26562 12.8 4.26562C12.4117 4.26562 12.0969 4.58044 12.0969 4.96875C12.0969 5.35645 11.7815 5.67188 11.3938 5.67188C11.0061 5.67188 10.6907 5.35645 10.6907 4.96875C10.6907 4.58044 10.3759 4.26562 9.98755 4.26562C9.59924 4.26562 9.28442 4.58044 9.28442 4.96875C9.28442 5.35645 8.969 5.67188 8.5813 5.67188C8.1936 5.67188 7.87817 5.35645 7.87817 4.96875C7.87817 4.58044 7.56336 4.26562 7.17505 4.26562C6.78674 4.26562 6.47192 4.58044 6.47192 4.96875C6.47192 5.35645 6.1565 5.67188 5.7688 5.67188C5.3811 5.67188 5.06567 5.35645 5.06567 4.96875V3.51562C5.06567 2.35252 6.01194 1.40625 7.17505 1.40625H18.425C19.5882 1.40625 20.5344 2.35252 20.5344 3.51562V4.96875ZM23.3938 9.89062H21.9407V8.48438H23.3938C23.3938 8.99325 23.3938 9.38175 23.3938 9.89062Z" fill="white"/>
<path d="M19.1282 9.18755C19.1282 8.79923 18.8134 8.48442 18.425 8.48442C18.0367 8.48442 17.7219 8.79923 17.7219 9.18755C17.7219 9.57525 17.4065 9.89067 17.0188 9.89067H14.7888C14.601 9.89067 14.4244 9.81755 14.2916 9.6847C13.4692 8.86228 12.131 8.86228 11.3085 9.6847C11.1757 9.8175 10.9991 9.89062 10.8113 9.89062H8.5813C8.1936 9.89062 7.87817 9.5752 7.87817 9.1875C7.87817 8.79919 7.56336 8.48437 7.17505 8.48437C6.78674 8.48437 6.47192 8.79919 6.47192 9.1875C6.47192 9.53864 6.55864 9.86977 6.71108 10.1613C6.55395 10.5169 6.47192 10.9021 6.47192 11.2969C6.47192 12.8477 7.73361 14.1094 9.28442 14.1094C10.8352 14.1094 12.0969 12.8477 12.0969 11.2969C12.0969 11.1575 12.0865 11.0196 12.0664 10.8834C12.1494 10.8217 12.2284 10.7535 12.3028 10.6791C12.577 10.405 13.0231 10.405 13.2972 10.6791C13.3716 10.7535 13.4507 10.8217 13.5337 10.8834C13.5136 11.0196 13.5032 11.1575 13.5032 11.2969C13.5032 12.8477 14.7649 14.1094 16.3157 14.1094C17.8665 14.1094 19.1282 12.8477 19.1282 11.2969C19.1282 10.9021 19.0461 10.5169 18.889 10.1613C19.0415 9.86981 19.1282 9.53869 19.1282 9.18755ZM9.28442 12.7032C8.50902 12.7032 7.87817 12.0723 7.87817 11.2969C7.87817 11.2569 7.88028 11.2173 7.88361 11.1778C8.10214 11.2546 8.33685 11.2922 8.5813 11.2922H10.6907C10.6907 12.0676 10.0598 12.7032 9.28442 12.7032ZM16.3157 12.7032C15.5403 12.7032 14.9094 12.0723 14.9094 11.2969H17.0188C17.2633 11.2969 17.498 11.2546 17.7165 11.1778C17.7198 11.2173 17.7219 11.2569 17.7219 11.2969C17.7219 12.0723 17.0911 12.7032 16.3157 12.7032Z" fill="white"/>
<path d="M14.2063 14.1094C13.818 14.1094 13.5032 14.4242 13.5032 14.8125V15.5156H12.0969V14.8125C12.0969 14.4242 11.7821 14.1094 11.3938 14.1094C11.0055 14.1094 10.6907 14.4242 10.6907 14.8125V16.2188C10.6907 16.6071 11.0055 16.9219 11.3938 16.9219H14.2063C14.5946 16.9219 14.9094 16.6071 14.9094 16.2188V14.8125C14.9094 14.4242 14.5946 14.1094 14.2063 14.1094Z" fill="white"/>
<path d="M15.6125 18.375H9.98755C9.59924 18.375 9.28442 18.6898 9.28442 19.0781C9.28442 19.4664 9.59924 19.7812 9.98755 19.7812H15.6125C16.0009 19.7812 16.3157 19.4664 16.3157 19.0781C16.3157 18.6898 16.0009 18.375 15.6125 18.375Z" fill="white"/>
</g>
<defs>
<clipPath id="clip0">
<rect width="24" height="24" fill="white" transform="translate(0.800049)"/>
</clipPath>
</defs>
</svg>
