<svg width="19" height="24" viewBox="0 0 19 24" fill="none" xmlns="http://www.w3.org/2000/svg">
<path d="M12.9967 15.2987H14.4413C16.0677 15.2987 17.657 16.516 17.3866 18.0817L17.0921 19.5659C16.6874 21.2936 15.7732 22.3489 14.1468 22.5H4.87216C3.24578 22.3489 2.36956 21.0334 1.92689 19.5659L1.63236 18.0817C1.27392 16.5627 2.95125 15.2987 4.57763 15.2987H5.98252M4.51137 6.52862C4.17855 6.52862 3.84603 6.81026 3.84603 7.1573V8.41438C3.84603 8.76114 4.14409 9.04334 4.51137 9.04334C4.51137 9.04334 5.50923 11.5572 6.17427 12.5004C6.58631 13.0848 7.17213 14.4877 9.50036 14.4877C11.8286 14.4877 12.4141 13.0848 12.8265 12.5004C13.4918 11.5572 14.4894 9.04334 14.4894 9.04334C14.8563 9.04334 15.1547 8.76114 15.1547 8.41438V7.1573C15.1547 6.81026 14.8563 6.52862 14.4894 6.52862V5.58573C14.4894 3.38577 13.1722 1.5 9.50036 1.5C5.84145 1.5 4.51137 3.38549 4.51137 5.58573V6.52862Z" stroke="white" stroke-miterlimit="10" stroke-linecap="round" stroke-linejoin="round"/>
</svg>
